<svg width="122" height="139" viewBox="0 0 122 139" fill="none" xmlns="http://www.w3.org/2000/svg">
<g clip-path="url(#clip0_125_7988)">
<path d="M0.00012207 94.781C11.296 120.648 37.1823 138.99 67.3046 138.99C56.0087 113.123 30.1224 94.781 0.00012207 94.781Z" fill="#00BE64"/>
<path d="M67.3085 138.99C89.4295 138.99 108.727 125.821 117.198 107.009C94.6068 107.009 75.7804 120.178 67.3085 138.99Z" fill="#00BE64"/>
<path d="M67.3122 0.00012207C36.7192 0.00012207 12.2449 24.4562 12.2449 54.556C12.2449 84.6558 36.7192 109.112 66.8415 109.112C96.9638 109.112 121.438 84.6558 121.438 54.556C121.909 24.4562 97.4344 0.00012207 67.3122 0.00012207Z" fill="#003C96"/>
<path d="M67.3122 0.00012207C36.7192 0.00012207 12.2449 24.4562 12.2449 54.556C12.2449 84.6558 36.7192 109.112 66.8415 109.112C96.9638 109.112 121.438 84.6558 121.438 54.556C121.909 24.4562 97.4344 0.00012207 67.3122 0.00012207ZM67.3122 81.8339C52.251 81.8339 40.0138 69.6059 40.0138 54.556C40.0138 39.5061 52.251 27.2781 67.3122 27.2781C82.3733 27.2781 94.6105 39.5061 94.6105 54.556C94.6105 69.6059 82.3733 81.8339 67.3122 81.8339Z" fill="#FFB900"/>
</g>
<defs>
<clipPath id="clip0_125_7988">
<rect width="121.512" height="139" fill="white"/>
</clipPath>
</defs>
</svg>
