<svg width="24" height="24" viewBox="0 0 24 24" fill="none" xmlns="http://www.w3.org/2000/svg">
<path d="M21.3343 11.1622C20.5496 9.50907 19.6158 8.16085 18.5329 7.11755L17.3972 8.25327C18.3233 9.13831 19.13 10.2961 19.8276 11.7381C17.9704 15.5818 15.3343 17.4077 11.7316 17.4077C10.6502 17.4077 9.65412 17.2412 8.7434 16.9082L7.51282 18.1388C8.77771 18.7228 10.184 19.0149 11.7316 19.0149C16.0218 19.0149 19.2226 16.7805 21.3343 12.3117C21.4191 12.132 21.4632 11.9357 21.4632 11.737C21.4632 11.5382 21.4191 11.3419 21.3343 11.1622ZM19.9153 4.00505L18.9637 3.05237C18.9471 3.03577 18.9274 3.0226 18.9058 3.01361C18.8841 3.00463 18.8608 3 18.8374 3C18.8139 3 18.7907 3.00463 18.769 3.01361C18.7473 3.0226 18.7276 3.03577 18.711 3.05237L16.2697 5.49255C14.9238 4.80505 13.411 4.4613 11.7316 4.4613C7.4414 4.4613 4.2405 6.69568 2.1289 11.1644C2.04402 11.3442 2 11.5404 2 11.7392C2 11.938 2.04402 12.1343 2.1289 12.314C2.9725 14.0908 3.98812 15.5149 5.17577 16.5865L2.81372 18.9479C2.78025 18.9814 2.76146 19.0268 2.76146 19.0741C2.76146 19.1215 2.78025 19.1669 2.81372 19.2004L3.76662 20.1533C3.8001 20.1867 3.84551 20.2055 3.89285 20.2055C3.94019 20.2055 3.98559 20.1867 4.01907 20.1533L19.9153 4.25773C19.9319 4.24115 19.9451 4.22145 19.954 4.19977C19.963 4.17809 19.9677 4.15486 19.9677 4.13139C19.9677 4.10792 19.963 4.08469 19.954 4.06301C19.9451 4.04133 19.9319 4.02164 19.9153 4.00505ZM3.63559 11.7381C5.49497 7.89434 8.13113 6.06844 11.7316 6.06844C12.949 6.06844 14.0559 6.27737 15.0601 6.70215L13.491 8.27135C12.7478 7.87484 11.8969 7.72768 11.0637 7.85158C10.2306 7.97549 9.45931 8.36389 8.8637 8.9595C8.26809 9.5551 7.87969 10.3264 7.75578 11.1595C7.63188 11.9927 7.77904 12.8436 8.17555 13.5867L6.31349 15.4488C5.28291 14.5392 4.39452 13.3068 3.63559 11.7381ZM9.14229 11.7381C9.14268 11.3445 9.23591 10.9565 9.41441 10.6057C9.59291 10.2549 9.85164 9.95116 10.1696 9.71913C10.4875 9.48711 10.8557 9.33336 11.2443 9.27037C11.6328 9.20738 12.0307 9.23693 12.4057 9.35661L9.26082 12.5015C9.18199 12.2547 9.142 11.9972 9.14229 11.7381Z" fill="#2C2A29"/>
<path d="M11.6427 14.2417C11.5654 14.2417 11.4893 14.2381 11.4139 14.2312L10.2349 15.4102C10.944 15.6818 11.7166 15.7422 12.4593 15.584C13.202 15.4258 13.883 15.0559 14.4199 14.519C14.9569 13.982 15.3268 13.301 15.485 12.5583C15.6431 11.8156 15.5828 11.043 15.3112 10.3339L14.1322 11.5129C14.1391 11.5884 14.1427 11.6645 14.1427 11.7417C14.1429 12.0701 14.0783 12.3952 13.9527 12.6986C13.8272 13.002 13.643 13.2777 13.4108 13.5099C13.1787 13.742 12.903 13.9262 12.5996 14.0518C12.2962 14.1773 11.971 14.2419 11.6427 14.2417Z" fill="#2C2A29"/>
</svg>
