<svg width="24" height="24" viewBox="0 0 24 24" fill="none" xmlns="http://www.w3.org/2000/svg">
<path d="M13.3669 12.4311L19.0048 5.71074C19.0993 5.59906 19.0199 5.42938 18.8738 5.42938H17.1599C17.0589 5.42938 16.9623 5.47449 16.8957 5.5518L12.2458 11.0952L7.59589 5.5518C7.53145 5.47449 7.4348 5.42938 7.33171 5.42938H5.61779C5.47175 5.42938 5.39228 5.59906 5.48678 5.71074L11.1247 12.4311L5.48678 19.1515C5.46561 19.1764 5.45203 19.2068 5.44765 19.2392C5.44327 19.2716 5.44827 19.3045 5.46207 19.3341C5.47586 19.3638 5.49787 19.3888 5.52547 19.4063C5.55307 19.4238 5.58512 19.433 5.61779 19.4328H7.33171C7.43266 19.4328 7.52931 19.3877 7.59589 19.3104L12.2458 13.767L16.8957 19.3104C16.9601 19.3877 17.0568 19.4328 17.1599 19.4328H18.8738C19.0199 19.4328 19.0993 19.2631 19.0048 19.1515L13.3669 12.4311Z" fill="#2C2A29"/>
</svg>
