<svg width="12" height="12" viewBox="0 0 12 12" fill="none" xmlns="http://www.w3.org/2000/svg">
<path d="M6.68322 6.21668L9.50217 2.8565C9.54942 2.80066 9.50968 2.71582 9.43666 2.71582H8.5797C8.52923 2.71582 8.4809 2.73837 8.44761 2.77703L6.12266 5.54872L3.7977 2.77703C3.76548 2.73837 3.71716 2.71582 3.66561 2.71582H2.80865C2.73563 2.71582 2.6959 2.80066 2.74315 2.8565L5.56209 6.21668L2.74315 9.57686C2.73256 9.5893 2.72577 9.60453 2.72358 9.62072C2.72139 9.63691 2.72389 9.65339 2.73079 9.6682C2.73769 9.68301 2.74869 9.69554 2.76249 9.70428C2.77629 9.71303 2.79231 9.71763 2.80865 9.71754H3.66561C3.71608 9.71754 3.76441 9.69498 3.7977 9.65632L6.12266 6.88463L8.44761 9.65632C8.47983 9.69498 8.52816 9.71754 8.5797 9.71754H9.43666C9.50968 9.71754 9.54942 9.6327 9.50217 9.57686L6.68322 6.21668Z" fill="#4D4D4D"/>
</svg>
