<svg width="176" height="40" viewBox="0 0 176 40" fill="none" xmlns="http://www.w3.org/2000/svg">
<g clip-path="url(#clip0_137_6746)">
<path d="M0 27.871C3.08321 34.9677 10.1489 40 18.3708 40C15.2876 32.9032 8.22189 27.871 0 27.871Z" fill="#00BE64"/>
<path d="M18.3716 40C24.4095 40 29.6767 36.3871 31.9891 31.2258C25.8227 31.2258 20.684 34.8387 18.3716 40Z" fill="#00BE64"/>
<path d="M18.3729 0C10.0226 0 3.34229 6.70968 3.34229 14.9677C3.34229 23.2258 10.0226 29.9355 18.2445 29.9355C26.4664 29.9355 33.1466 23.2258 33.1466 14.9677C33.2751 6.70968 26.5948 0 18.3729 0Z" fill="#001E64"/>
<path d="M18.3729 0C10.0226 0 3.34229 6.70968 3.34229 14.9677C3.34229 23.2258 10.0226 29.9355 18.2445 29.9355C26.4664 29.9355 33.1466 23.2258 33.1466 14.9677C33.2751 6.70968 26.5948 0 18.3729 0ZM18.3729 22.4516C14.262 22.4516 10.9218 19.0968 10.9218 14.9677C10.9218 10.8387 14.262 7.48387 18.3729 7.48387C22.4839 7.48387 25.824 10.8387 25.824 14.9677C25.824 19.0968 22.4839 22.4516 18.3729 22.4516Z" fill="#FFB900"/>
<path d="M114.463 14.9677H120.758V39.2258H114.463V29.8064H103.544V39.2258H97.2486V14.9677H103.544V23.871H114.463V14.9677ZM123.584 21.0322H131.421V39.3548H137.716V21.0322H145.424V14.9677H123.584V21.0322ZM175.614 34.0645V39.2258C174.586 39.7419 173.173 40 171.631 40C168.419 40 166.749 38.5806 166.107 36.258L165.979 36.3871C164.052 38.7097 161.482 40 158.142 40C154.93 40 152.104 38.8387 149.792 36.258C147.479 33.8064 146.323 30.7097 146.323 27.0968C146.323 23.4839 147.479 20.5161 149.792 18.0645C152.104 15.6129 154.93 14.3226 158.142 14.3226C161.354 14.3226 163.923 15.3548 165.722 17.5484V14.9677H172.016V32.2581C172.016 33.6774 172.659 34.4516 174.072 34.4516C174.586 34.4516 175.1 34.3226 175.614 34.0645ZM165.979 27.0968C165.979 25.1613 165.336 23.4839 164.052 22.1935C162.767 20.9032 161.225 20.2581 159.298 20.2581C157.371 20.2581 155.701 20.9032 154.545 22.1935C153.26 23.4839 152.618 25.1613 152.618 27.0968C152.618 29.0322 153.26 30.7097 154.545 32C155.83 33.2903 157.371 33.9355 159.298 33.9355C161.225 33.9355 162.895 33.2903 164.052 32C165.336 30.8387 165.979 29.1613 165.979 27.0968ZM45.7334 14.9677L45.6049 24.129C45.6049 27.871 45.4764 29.6774 44.8341 31.7419C44.3202 33.8064 43.421 34.3226 42.0078 34.3226C41.4939 34.3226 41.1085 34.3226 40.7231 34.1935V39.3548C41.237 39.6129 42.0078 39.7419 43.0356 39.7419C47.4034 39.6129 49.5874 37.5484 50.6151 33.8064C51.3859 31.0968 51.5144 29.0322 51.6428 26.0645L51.7713 21.1613H59.4793V39.4839H65.7742V14.9677H45.7334ZM75.9231 28.7742C76.5654 32.9032 79.9056 34.3226 83.2457 34.3226C85.4297 34.3226 87.7421 33.4193 89.1552 32.129L93.0092 36C90.6968 38.5806 87.4851 40 83.1173 40C76.9508 40 69.6282 36.3871 69.6282 27.0968C69.6282 17.9355 76.6939 14.1935 82.7319 14.1935C90.4399 14.1935 93.5231 17.8064 93.5231 21.8064C93.5231 28.6451 85.1727 31.6129 75.9231 28.7742ZM86.7143 22.7097C86.7143 20.7742 84.9158 20 82.7319 20C79.5202 20 76.8224 21.2903 75.9231 24.7742C82.4749 26.7097 86.7143 25.2903 86.7143 22.7097Z" fill="#001E64"/>
</g>
<defs>
<clipPath id="clip0_137_6746">
<rect width="176" height="40" fill="white"/>
</clipPath>
</defs>
</svg>
