<svg width="176" height="40" viewBox="0 0 176 40" fill="none" xmlns="http://www.w3.org/2000/svg">
<g clip-path="url(#clip0_1450_8503)">
<path d="M0 27.8711C3.08321 34.9679 10.1489 40.0001 18.3708 40.0001C15.2876 32.9033 8.22189 27.8711 0 27.8711Z" fill="#00BE64"/>
<path d="M18.3721 40C24.41 40 29.6772 36.3871 31.9896 31.2258C25.8232 31.2258 20.6845 34.8387 18.3721 40Z" fill="#00BE64"/>
<path d="M18.3724 0C10.0221 0 3.3418 6.70968 3.3418 14.9677C3.3418 23.2258 10.0221 29.9355 18.244 29.9355C26.4659 29.9355 33.1461 23.2258 33.1461 14.9677C33.2746 6.70968 26.5943 0 18.3724 0Z" fill="#003C96"/>
<path d="M18.3724 0C10.0221 0 3.3418 6.70968 3.3418 14.9677C3.3418 23.2258 10.0221 29.9355 18.244 29.9355C26.4659 29.9355 33.1461 23.2258 33.1461 14.9677C33.2746 6.70968 26.5943 0 18.3724 0ZM18.3724 22.4516C14.2615 22.4516 10.9214 19.0968 10.9214 14.9677C10.9214 10.8387 14.2615 7.48387 18.3724 7.48387C22.4834 7.48387 25.8235 10.8387 25.8235 14.9677C25.8235 19.0968 22.4834 22.4516 18.3724 22.4516Z" fill="#FFB900"/>
<path d="M114.463 14.9678H120.758V39.2259H114.463V29.8065H103.543V39.2259H97.2482V14.9678H103.543V23.871H114.463V14.9678ZM123.584 21.0323H131.42V39.3549H137.715V21.0323H145.423V14.9678H123.584V21.0323ZM175.613 34.0646V39.2259C174.585 39.742 173.172 40 171.631 40C168.419 40 166.749 38.5807 166.106 36.2581L165.978 36.3871C164.051 38.7097 161.482 40 158.142 40C154.93 40 152.104 38.8388 149.791 36.2581C147.479 33.8065 146.323 30.7097 146.323 27.0968C146.323 23.4839 147.479 20.5162 149.791 18.0646C152.104 15.613 154.93 14.3226 158.142 14.3226C161.353 14.3226 163.923 15.3549 165.721 17.5484V14.9678H172.016V32.2581C172.016 33.6775 172.658 34.4517 174.071 34.4517C174.585 34.4517 175.099 34.3226 175.613 34.0646ZM165.978 27.0968C165.978 25.1613 165.336 23.4839 164.051 22.1936C162.766 20.9033 161.225 20.2581 159.298 20.2581C157.371 20.2581 155.701 20.9033 154.544 22.1936C153.26 23.4839 152.617 25.1613 152.617 27.0968C152.617 29.0323 153.26 30.7097 154.544 32C155.829 33.2904 157.371 33.9355 159.298 33.9355C161.225 33.9355 162.895 33.2904 164.051 32C165.336 30.8388 165.978 29.1613 165.978 27.0968ZM45.7329 14.9678L45.6044 24.1291C45.6044 27.871 45.4759 29.6775 44.8336 31.742C44.3197 33.8065 43.4205 34.3226 42.0073 34.3226C41.4935 34.3226 41.1081 34.3226 40.7227 34.1936V39.3549C41.2365 39.6129 42.0073 39.742 43.0351 39.742C47.4029 39.6129 49.5869 37.5484 50.6146 33.8065C51.3854 31.0968 51.5139 29.0323 51.6424 26.0646L51.7708 21.1613H59.4788V39.4839H65.7737V14.9678H45.7329ZM75.9226 28.7742C76.565 32.9033 79.9051 34.3226 83.2453 34.3226C85.4292 34.3226 87.7416 33.4194 89.1547 32.1291L93.0087 36C90.6963 38.5807 87.4847 40 83.1168 40C76.9504 40 69.6277 36.3871 69.6277 27.0968C69.6277 17.9355 76.6934 14.1936 82.7314 14.1936C90.4394 14.1936 93.5226 17.8065 93.5226 21.8065C93.5226 28.6452 85.1723 31.613 75.9226 28.7742ZM86.7139 22.7097C86.7139 20.7742 84.9153 20.0001 82.7314 20.0001C79.5197 20.0001 76.8219 21.2904 75.9226 24.7742C82.4744 26.7097 86.7139 25.2904 86.7139 22.7097Z" fill="#003C96"/>
</g>
<defs>
<clipPath id="clip0_1450_8503">
<rect width="176" height="40" fill="white"/>
</clipPath>
</defs>
</svg>
