<svg width="209" height="72" viewBox="0 0 209 72" fill="none" xmlns="http://www.w3.org/2000/svg">
<path d="M61.4082 54.8281H51.8926V71.0938H34.6895V54.8281H0.892578V41.6094L33.5645 1.10938H51.8926V42.0781H61.4082V54.8281ZM34.6895 42.0781V16.8594L14.3926 42.0781H34.6895Z" fill="#003C96"/>
<path d="M105.102 0.90625C85.576 0.90625 69.9551 16.5959 69.9551 35.9062C69.9551 55.2166 85.576 70.9062 104.802 70.9062C124.028 70.9062 139.648 55.2166 139.648 35.9062C139.949 16.5959 124.328 0.90625 105.102 0.90625Z" fill="#003C96"/>
<path d="M105.102 0.90625C85.576 0.90625 69.9551 16.5959 69.9551 35.9062C69.9551 55.2166 85.576 70.9062 104.802 70.9062C124.028 70.9062 139.648 55.2166 139.648 35.9062C139.949 16.5959 124.328 0.90625 105.102 0.90625ZM105.102 53.4062C95.4893 53.4062 87.6788 45.5614 87.6788 35.9062C87.6788 26.2511 95.4893 18.4062 105.102 18.4062C114.715 18.4062 122.526 26.2511 122.526 35.9062C122.526 45.5614 114.715 53.4062 105.102 53.4062Z" fill="#FFB900"/>
<path d="M208.106 54.8281H198.59V71.0938H181.387V54.8281H147.59V41.6094L180.262 1.10938H198.59V42.0781H208.106V54.8281ZM181.387 42.0781V16.8594L161.09 42.0781H181.387Z" fill="#003C96"/>
</svg>
