<svg width="24" height="25" viewBox="0 0 24 25" fill="none" xmlns="http://www.w3.org/2000/svg">
<g id="filter">
<path id="Vector" d="M21.8566 3.71763H17.3566V2.00335C17.3566 1.88549 17.2602 1.78906 17.1423 1.78906H15.6423C15.5244 1.78906 15.428 1.88549 15.428 2.00335V3.71763H8.57087V2.00335C8.57087 1.88549 8.47444 1.78906 8.35659 1.78906H6.85659C6.73873 1.78906 6.6423 1.88549 6.6423 2.00335V3.71763H2.1423C1.66819 3.71763 1.28516 4.10067 1.28516 4.57478V22.3605C1.28516 22.8346 1.66819 23.2176 2.1423 23.2176H21.8566C22.3307 23.2176 22.7137 22.8346 22.7137 22.3605V4.57478C22.7137 4.10067 22.3307 3.71763 21.8566 3.71763ZM20.7852 21.2891H3.21373V11.1105H20.7852V21.2891ZM3.21373 9.28906V5.64621H6.6423V6.93192C6.6423 7.04978 6.73873 7.14621 6.85659 7.14621H8.35659C8.47444 7.14621 8.57087 7.04978 8.57087 6.93192V5.64621H15.428V6.93192C15.428 7.04978 15.5244 7.14621 15.6423 7.14621H17.1423C17.2602 7.14621 17.3566 7.04978 17.3566 6.93192V5.64621H20.7852V9.28906H3.21373Z" fill="#2C2A29"/>
</g>
</svg>
