<svg width="16" height="16" viewBox="0 0 16 16" fill="none" xmlns="http://www.w3.org/2000/svg">
<path d="M12.2605 0.959278L12.2605 0.959292C12.3734 0.82814 12.5386 0.75 12.7141 0.75H14.428C14.7848 0.75 14.9828 1.16673 14.7503 1.44232C14.7502 1.44249 14.75 1.44267 14.7499 1.44284L9.24746 8.00172L14.7499 14.5606C14.75 14.5607 14.7501 14.5609 14.7502 14.561C14.9829 14.8366 14.7849 15.2534 14.428 15.2534H12.7141C12.5382 15.2534 12.3708 15.1764 12.2581 15.0413C12.258 15.0412 12.2579 15.0411 12.2579 15.0411L7.8 9.72663L3.34162 15.0417L3.33954 15.0442L3.33953 15.0441C3.22659 15.1753 3.06136 15.2534 2.88591 15.2534H1.17251H1.17199V15.0034L12.2605 0.959278ZM12.2605 0.959278L12.2584 0.961757M12.2605 0.959278L12.2584 0.961757M12.2584 0.961757L7.8 6.2768M12.2584 0.961757L7.8 6.2768M7.8 6.2768L3.34214 0.962376C3.34205 0.962272 3.34197 0.962167 3.34188 0.962063C3.22916 0.826993 3.06182 0.75 2.88591 0.75H1.17199C0.815182 0.75 0.617173 1.16677 0.849727 1.44236C0.849862 1.44252 0.849998 1.44268 0.850133 1.44284L6.35254 8.00172M7.8 6.2768L6.35254 8.00172M6.35254 8.00172L0.850531 14.5601C0.850336 14.5603 0.850141 14.5606 0.849947 14.5608L6.35254 8.00172Z" fill="#4D4D4D" stroke="#4D4D4D" stroke-width="0.5"/>
</svg>
