<svg width="48" height="48" viewBox="0 0 48 48" fill="none" xmlns="http://www.w3.org/2000/svg">
<g clip-path="url(#clip0_1450_8510)">
<path d="M22.0717 24C22.0717 24.5115 22.2748 25.002 22.6365 25.3637C22.9982 25.7254 23.4887 25.9286 24.0002 25.9286C24.5117 25.9286 25.0023 25.7254 25.3639 25.3637C25.7256 25.002 25.9288 24.5115 25.9288 24C25.9288 23.4885 25.7256 22.998 25.3639 22.6363C25.0023 22.2746 24.5117 22.0714 24.0002 22.0714C23.4887 22.0714 22.9982 22.2746 22.6365 22.6363C22.2748 22.998 22.0717 23.4885 22.0717 24ZM30.1074 24C30.1074 24.5115 30.3106 25.002 30.6722 25.3637C31.0339 25.7254 31.5245 25.9286 32.0359 25.9286C32.5474 25.9286 33.038 25.7254 33.3996 25.3637C33.7613 25.002 33.9645 24.5115 33.9645 24C33.9645 23.4885 33.7613 22.998 33.3996 22.6363C33.038 22.2746 32.5474 22.0714 32.0359 22.0714C31.5245 22.0714 31.0339 22.2746 30.6722 22.6363C30.3106 22.998 30.1074 23.4885 30.1074 24ZM14.0359 24C14.0359 24.5115 14.2391 25.002 14.6008 25.3637C14.9625 25.7254 15.453 25.9286 15.9645 25.9286C16.476 25.9286 16.9665 25.7254 17.3282 25.3637C17.6899 25.002 17.8931 24.5115 17.8931 24C17.8931 23.4885 17.6899 22.998 17.3282 22.6363C16.9665 22.2746 16.476 22.0714 15.9645 22.0714C15.453 22.0714 14.9625 22.2746 14.6008 22.6363C14.2391 22.998 14.0359 23.4885 14.0359 24ZM40.602 17.025C39.694 14.8674 38.3922 12.9308 36.7328 11.2674C35.0851 9.61365 33.1289 8.29911 30.9752 7.39821C28.7654 6.47009 26.419 6 24.0002 6H23.9199C21.4851 6.01205 19.1266 6.4942 16.9087 7.44241C14.7734 8.35254 12.8357 9.66942 11.2034 11.3196C9.56005 12.979 8.27032 14.9076 7.37835 17.0571C6.45425 19.283 5.98817 21.6496 6.00023 24.0844C6.01386 26.8747 6.67399 29.6238 7.9288 32.1161V38.2232C7.9288 38.7134 8.12352 39.1835 8.47013 39.5301C8.81674 39.8767 9.28684 40.0714 9.77701 40.0714H15.8882C18.3804 41.3262 21.1296 41.9864 23.9199 42H24.0042C26.4109 42 28.7453 41.5339 30.9431 40.6219C33.0859 39.7317 35.0347 38.4325 36.6806 36.7969C38.34 35.1536 39.6458 33.233 40.5578 31.0915C41.506 28.8737 41.9882 26.5152 42.0002 24.0804C42.0123 21.6335 41.5382 19.2589 40.602 17.025ZM34.531 34.6232C31.7145 37.4116 27.9779 38.9464 24.0002 38.9464H23.9319C21.5092 38.9344 19.1025 38.3317 16.977 37.1987L16.6395 37.0179H10.9824V31.3607L10.8016 31.0232C9.66853 28.8978 9.06585 26.4911 9.0538 24.0683C9.03773 20.0625 10.5685 16.3018 13.377 13.4692C16.1815 10.6366 19.9301 9.06964 23.9359 9.05357H24.0042C26.0132 9.05357 27.9618 9.4433 29.798 10.2147C31.59 10.9661 33.1971 12.0469 34.5792 13.429C35.9574 14.8071 37.0422 16.4183 37.7935 18.2103C38.573 20.0665 38.9627 22.0353 38.9547 24.0683C38.9306 28.0701 37.3596 31.8188 34.531 34.6232Z" fill="#003C96"/>
</g>
<path d="M42 10C44.2091 10 46 8.20914 46 6C46 3.79086 44.2091 2 42 2C39.7909 2 38 3.79086 38 6C38 8.20914 39.7909 10 42 10Z" fill="#FFB900"/>
<defs>
<clipPath id="clip0_1450_8510">
<rect width="36" height="36" fill="white" transform="translate(6 6)"/>
</clipPath>
</defs>
</svg>
