<svg width="24" height="24" viewBox="0 0 24 24" fill="none" xmlns="http://www.w3.org/2000/svg">
<path d="M9.00028 6.80409H10.9797V15.8657C10.9797 15.9836 11.0762 16.08 11.194 16.08H12.8012C12.919 16.08 13.0155 15.9836 13.0155 15.8657V6.80409H15.0003C15.1797 6.80409 15.2789 6.59784 15.169 6.45856L12.169 2.66034C12.149 2.63473 12.1234 2.61402 12.0941 2.59977C12.0649 2.58553 12.0328 2.57812 12.0003 2.57812C11.9678 2.57812 11.9357 2.58553 11.9064 2.59977C11.8772 2.61402 11.8516 2.63473 11.8315 2.66034L8.83153 6.45588C8.72171 6.59784 8.82081 6.80409 9.00028 6.80409ZM21.8039 15.0621H20.1967C20.0788 15.0621 19.9824 15.1586 19.9824 15.2764V19.4014H4.01814V15.2764C4.01814 15.1586 3.92171 15.0621 3.80385 15.0621H2.19671C2.07885 15.0621 1.98242 15.1586 1.98242 15.2764V20.58C1.98242 21.0541 2.36546 21.4371 2.83956 21.4371H21.161C21.6351 21.4371 22.0181 21.0541 22.0181 20.58V15.2764C22.0181 15.1586 21.9217 15.0621 21.8039 15.0621Z" fill="white"/>
</svg>
