<svg width="71" height="70" viewBox="0 0 71 70" fill="none" xmlns="http://www.w3.org/2000/svg">
<path d="M35.7975 0C16.2713 0 0.650391 15.6897 0.650391 35C0.650391 54.3103 16.2713 70 35.4971 70C54.7228 70 70.3438 54.3103 70.3438 35C70.6442 15.6897 55.0232 0 35.7975 0Z" fill="#003C96"/>
<path d="M35.7975 0C16.2713 0 0.650391 15.6897 0.650391 35C0.650391 54.3103 16.2713 70 35.4971 70C54.7228 70 70.3438 54.3103 70.3438 35C70.6442 15.6897 55.0232 0 35.7975 0ZM35.7975 52.5C26.1846 52.5 18.3741 44.6552 18.3741 35C18.3741 25.3448 26.1846 17.5 35.7975 17.5C45.4104 17.5 53.2208 25.3448 53.2208 35C53.2208 44.6552 45.4104 52.5 35.7975 52.5Z" fill="#FFB900"/>
</svg>
